<?xml version="1.0" encoding="UTF-8"?>
<svg xmlns="http://www.w3.org/2000/svg" viewBox="0 0 48 48">
  <path fill="#0033ad" d="M24,4C12.954,4,4,12.954,4,24s8.954,20,20,20s20-8.954,20-20S35.046,4,24,4z"/>
  <path fill="#ffffff" d="M24,13c-1.1,0-2,0.9-2,2s0.9,2,2,2s2-0.9,2-2S25.1,13,24,13z M24,31c-1.1,0-2,0.9-2,2s0.9,2,2,2s2-0.9,2-2 S25.1,31,24,31z M31,20c-1.1,0-2,0.9-2,2s0.9,2,2,2s2-0.9,2-2S32.1,20,31,20z M17,20c-1.1,0-2,0.9-2,2s0.9,2,2,2s2-0.9,2-2 S18.1,20,17,20z M28.5,16.5c-1.1,0-2,0.9-2,2s0.9,2,2,2s2-0.9,2-2S29.6,16.5,28.5,16.5z M19.5,16.5c-1.1,0-2,0.9-2,2s0.9,2,2,2 s2-0.9,2-2S20.6,16.5,19.5,16.5z M28.5,27.5c-1.1,0-2,0.9-2,2s0.9,2,2,2s2-0.9,2-2S29.6,27.5,28.5,27.5z M19.5,27.5 c-1.1,0-2,0.9-2,2s0.9,2,2,2s2-0.9,2-2S20.6,27.5,19.5,27.5z"/>
</svg>
