<?xml version="1.0" encoding="UTF-8"?>
<svg xmlns="http://www.w3.org/2000/svg" viewBox="0 0 48 48">
  <path fill="#00ffa3" d="M39,19.5H13.7c-0.4,0-0.7-0.2-0.9-0.5l-3.8-6c-0.2-0.3-0.2-0.7,0-1C9.2,11.7,9.5,11.5,9.9,11.5H35c0.4,0,0.7,0.2,0.9,0.5l3.8,6c0.2,0.3,0.2,0.7,0,1C39.8,19.3,39.4,19.5,39,19.5z"/>
  <path fill="#00ffa3" d="M39,36.5H13.7c-0.4,0-0.7-0.2-0.9-0.5l-3.8-6c-0.2-0.3-0.2-0.7,0-1c0.2-0.3,0.5-0.5,0.9-0.5H35c0.4,0,0.7,0.2,0.9,0.5l3.8,6c0.2,0.3,0.2,0.7,0,1C39.8,36.3,39.4,36.5,39,36.5z"/>
  <path fill="#00ffa3" d="M22.8,28H13.7c-0.4,0-0.7-0.2-0.9-0.5l-3.8-6c-0.2-0.3-0.2-0.7,0-1c0.2-0.3,0.5-0.5,0.9-0.5h9.1c0.4,0,0.7,0.2,0.9,0.5l3.8,6c0.2,0.3,0.2,0.7,0,1C23.6,27.8,23.2,28,22.8,28z"/>
</svg>
