<?xml version="1.0" encoding="UTF-8"?>
<svg xmlns="http://www.w3.org/2000/svg" viewBox="0 0 48 48">
  <path fill="#23292f" d="M24,4C12.954,4,4,12.954,4,24s8.954,20,20,20s20-8.954,20-20S35.046,4,24,4z"/>
  <path fill="#ffffff" d="M34.5,15l-6.5,6.5l-4,4l-6.5,6.5h-5l8.5-8.5l4-4L33.5,11h5l-8.5,8.5l-4,4l6.5,6.5h-5l-4.5-4.5l-4.5,4.5h-5 l8.5-8.5l4-4L14.5,11h5l4.5,4.5l4.5-4.5h5L25.5,19l-4,4l6.5,6.5h-5l-4.5-4.5l-4.5,4.5h-5l8.5-8.5l4-4L29.5,9h5L26,17.5l-4,4 L28.5,28h-5l-4.5-4.5l-4.5,4.5h-5l8.5-8.5l4-4L34.5,15z"/>
</svg>
